<?xml version="1.0" encoding="UTF-8"?> <svg xmlns="http://www.w3.org/2000/svg" xmlns:xlink="http://www.w3.org/1999/xlink" width="2993" height="1375" xml:space="preserve" overflow="hidden"><defs><clipPath id="clip0"><rect x="192" y="398" width="2993" height="1375"></rect></clipPath></defs><g clip-path="url(#clip0)" transform="translate(-192 -398)"><path d="M1004 745.5C1004 556.342 1157.34 403 1346.5 403 1535.66 403 1689 556.342 1689 745.5 1689 934.657 1535.66 1088 1346.5 1088 1157.34 1088 1004 934.657 1004 745.5Z" fill="#DEE6B0" fill-rule="evenodd" fill-opacity="0.662745"></path><path d="M766 1105.5C766 916.343 919.342 763 1108.5 763 1297.66 763 1451 916.343 1451 1105.5 1451 1294.66 1297.66 1448 1108.5 1448 919.342 1448 766 1294.66 766 1105.5Z" fill="#8AE3DA" fill-rule="evenodd" fill-opacity="0.529412"></path><path d="M1230 1099.5C1230 910.342 1383.34 757 1572.5 757 1761.66 757 1915 910.342 1915 1099.5 1915 1288.66 1761.66 1442 1572.5 1442 1383.34 1442 1230 1288.66 1230 1099.5Z" fill="#DDEAF9" fill-rule="evenodd" fill-opacity="0.631373"></path><text fill="#343333" fill-opacity="1" font-family="Arial,Arial_MSFontService,sans-serif" font-style="normal" font-variant="normal" font-weight="700" font-stretch="normal" font-size="92" text-anchor="start" direction="ltr" writing-mode="lr-tb" text-decoration="none" transform="matrix(1 0 0 1 1924.67 518)">Domain</text><text fill="#343333" fill-opacity="1" font-family="Arial,Arial_MSFontService,sans-serif" font-style="normal" font-variant="normal" font-weight="400" font-stretch="normal" font-size="73" text-anchor="start" direction="ltr" writing-mode="lr-tb" text-decoration="none" transform="matrix(1 0 0 1 1924.67 630)">What we care about</text><text fill="#6F7C22" fill-opacity="1" font-family="Arial,Arial_MSFontService,sans-serif" font-style="normal" font-variant="normal" font-weight="700" font-stretch="normal" font-size="147" text-anchor="start" direction="ltr" writing-mode="lr-tb" text-decoration="none" transform="matrix(1 0 0 1 1302.89 745)">1</text><text fill="#343333" fill-opacity="1" font-family="Arial,Arial_MSFontService,sans-serif" font-style="normal" font-variant="normal" font-weight="700" font-stretch="normal" font-size="92" text-anchor="start" direction="ltr" writing-mode="lr-tb" text-decoration="none" transform="matrix(1 0 0 1 1924.67 1540)">Practice</text><text fill="#343333" fill-opacity="1" font-family="Arial,Arial_MSFontService,sans-serif" font-style="normal" font-variant="normal" font-weight="400" font-stretch="normal" font-size="73" text-anchor="start" direction="ltr" writing-mode="lr-tb" text-decoration="none" transform="matrix(1 0 0 1 1924.67 1652)">What we do together about it</text><text fill="#4C92A8" fill-opacity="1" font-family="Arial,Arial_MSFontService,sans-serif" font-style="normal" font-variant="normal" font-weight="700" font-stretch="normal" font-size="147" text-anchor="start" direction="ltr" writing-mode="lr-tb" text-decoration="none" transform="matrix(1 0 0 1 1558.78 1175)">2</text><text fill="#343333" fill-opacity="1" font-family="Arial,Arial_MSFontService,sans-serif" font-style="normal" font-variant="normal" font-weight="700" font-stretch="normal" font-size="92" text-anchor="start" direction="ltr" writing-mode="lr-tb" text-decoration="none" transform="matrix(1 0 0 1 250.239 1582)">Community</text><text fill="#343333" fill-opacity="1" font-family="Arial,Arial_MSFontService,sans-serif" font-style="normal" font-variant="normal" font-weight="400" font-stretch="normal" font-size="73" text-anchor="start" direction="ltr" writing-mode="lr-tb" text-decoration="none" transform="matrix(1 0 0 1 250.239 1694)">Who cares about it</text><text fill="#27A89B" fill-opacity="1" font-family="Arial,Arial_MSFontService,sans-serif" font-style="normal" font-variant="normal" font-weight="700" font-stretch="normal" font-size="147" text-anchor="start" direction="ltr" writing-mode="lr-tb" text-decoration="none" transform="matrix(1 0 0 1 1037.31 1179)">3</text><path d="M0 0 259.382 291.956" stroke="#2EC3B5" stroke-width="6.875" stroke-linecap="butt" stroke-linejoin="round" stroke-miterlimit="10" stroke-dasharray="27.5 20.625" stroke-opacity="1" fill="#0B3C5C" fill-rule="evenodd" fill-opacity="1" transform="matrix(1 0 0 -1 774.5 1509.46)"></path><path d="M0 0 427.621 127.735" stroke="#6F7C22" stroke-width="6.875" stroke-linecap="butt" stroke-linejoin="round" stroke-miterlimit="10" stroke-dasharray="27.5 20.625" stroke-opacity="1" fill="#0B3C5C" fill-rule="evenodd" fill-opacity="1" transform="matrix(1 0 0 -1 1436.5 672.235)"></path><path d="M1650.5 1212.5 1929.65 1450.47" stroke="#4C92A8" stroke-width="6.875" stroke-linecap="butt" stroke-linejoin="round" stroke-miterlimit="10" stroke-dasharray="27.5 20.625" stroke-opacity="1" fill="#0B3C5C" fill-rule="evenodd" fill-opacity="1"></path><text fill="#666666" fill-opacity="1" font-family="Arial,Arial_MSFontService,sans-serif" font-style="normal" font-variant="normal" font-weight="400" font-stretch="normal" font-size="37" text-anchor="start" direction="ltr" writing-mode="lr-tb" text-decoration="none" transform="matrix(1 0 0 1 2558.35 1740)">© Scaled Agile, Inc.</text></g></svg> 